# xmcd
#
# Track frame offsets: 
#        150
#        8405
#        30052
#        47135
#        64847
#        80445
#        101102
#        117520
#        141262
#        160232
#        173785
#        192982
#        214557
#        235645
#        257242
#        270057
#        286120
#        311275
#        327085
#
# Disc length: 4562 seconds
#
# Revision: 2
# Processed by: cddbd v1.5.2PL0 Copyright (c) Steve Scherf et al.
# Submitted via: ExactAudioCopyFreeDBPlugin 1.0
#
DISCID=f211d013
DTITLE=R. Kelly - Double Up
DYEAR=2007
DGENRE=R&B
TTITLE0=The Champ (feat. Swizz Beatz)
TTITLE1=Double Up (feat. Snoop Dogg)
TTITLE2=Tryin' To Get A Number (feat. Nelly)
TTITLE3=Get Dirty (feat. Chamillionaire)
TTITLE4=Leave Your Name
TTITLE5=Freaky In The Club
TTITLE6=The Zoo
TTITLE7=I'm A Flirt Remix (feat. T.I. and T-Pain)
TTITLE8=Same Girl (duet with Usher)
TTITLE9=Real Talk
TTITLE10=Hook It Up (feat. Huey)
TTITLE11=Rock Star (feat. Ludacris and Kid Rock)
TTITLE12=Best Friend (feat. Keyshia Cole and Polow Da Don)
TTITLE13=Rollin'
TTITLE14=Sweet Tooth
TTITLE15=Havin' A Baby (female vocals by Sheri Hauk)
TTITLE16=Sex Planet
TTITLE17=Rise Up
TTITLE18=I Like Love [Bonus Track]
EXTD=YEAR: 2007
EXTT0=
EXTT1=
EXTT2=
EXTT3=
EXTT4=
EXTT5=
EXTT6=
EXTT7=
EXTT8=
EXTT9=
EXTT10=
EXTT11=
EXTT12=
EXTT13=
EXTT14=
EXTT15=
EXTT16=
EXTT17=
EXTT18=
PLAYORDER=
